<?xml version="1.0" encoding="UTF-8" ?>
<!DOCTYPE svg PUBLIC "-//W3C//DTD SVG 1.1//EN" "http://www.w3.org/Graphics/SVG/1.1/DTD/svg11.dtd">
<svg width="512pt" height="512pt" viewBox="0 0 512 512" version="1.1" xmlns="http://www.w3.org/2000/svg">
<g id="#03ba43ff">
<path fill="#03ba43" opacity="1.00" d=" M 226.56 61.14 C 237.99 59.77 249.57 60.23 261.05 60.63 C 270.47 61.90 279.94 62.91 289.23 64.95 C 331.95 73.91 371.42 96.94 400.68 129.26 C 425.96 157.18 443.54 192.01 450.77 228.98 C 455.19 251.33 455.93 274.36 453.24 296.98 C 448.21 335.50 432.23 372.56 407.53 402.57 C 383.92 431.56 352.47 454.14 317.34 466.97 C 297.95 474.05 277.49 477.70 256.99 479.46 C 222.46 480.95 187.46 474.37 156.20 459.49 C 130.33 447.13 106.81 429.67 88.01 407.99 C 61.37 377.53 43.59 339.27 38.26 299.12 C 35.67 284.88 36.31 270.33 36.54 255.93 C 38.61 226.54 46.64 197.46 60.71 171.51 C 77.23 140.10 102.07 113.23 131.83 93.93 C 160.11 75.48 192.97 64.32 226.56 61.14 M 357.08 168.06 C 339.09 186.40 320.55 204.21 302.83 222.82 C 272.51 253.23 242.01 283.47 211.84 314.01 C 185.21 287.44 158.65 260.71 131.98 234.17 C 119.28 246.74 106.78 259.51 94.03 272.02 C 128.85 306.84 163.68 341.67 198.43 376.57 C 202.99 380.78 206.88 385.72 211.87 389.47 C 229.75 371.18 247.99 353.19 266.05 335.06 C 309.55 291.55 353.03 248.01 396.52 204.50 C 397.62 203.62 398.30 202.09 397.03 201.00 C 385.39 189.29 373.68 177.64 362.01 165.95 C 360.13 164.14 358.44 166.97 357.08 168.06 Z" />
</g>
<g id="#fefefeff">
<path fill="#fefefe" opacity="1.00" d=" M 357.08 168.06 C 358.44 166.97 360.13 164.14 362.01 165.95 C 373.68 177.64 385.39 189.29 397.03 201.00 C 398.30 202.09 397.62 203.62 396.52 204.50 C 353.03 248.01 309.55 291.55 266.05 335.06 C 247.99 353.19 229.75 371.18 211.87 389.47 C 206.88 385.72 202.99 380.78 198.43 376.57 C 163.68 341.67 128.85 306.84 94.03 272.02 C 106.78 259.51 119.28 246.74 131.98 234.17 C 158.65 260.71 185.21 287.44 211.84 314.01 C 242.01 283.47 272.51 253.23 302.83 222.82 C 320.55 204.21 339.09 186.40 357.08 168.06 Z" />
</g>
</svg>
