<?xml version="1.0" encoding="UTF-8" ?>
<!DOCTYPE svg PUBLIC "-//W3C//DTD SVG 1.1//EN" "http://www.w3.org/Graphics/SVG/1.1/DTD/svg11.dtd">
<svg width="512pt" height="512pt" viewBox="0 0 512 512" version="1.1" xmlns="http://www.w3.org/2000/svg">
<g id="#f41e26fe">
<path fill="#f41e26" opacity="1.00" d=" M 230.38 61.43 C 285.84 56.68 342.25 77.44 383.03 114.97 C 426.23 154.33 452.06 211.58 454.26 269.90 C 457.56 325.86 438.09 383.05 401.57 425.61 C 367.17 466.95 315.82 494.09 262.11 498.23 C 208.35 503.35 153.09 484.88 112.38 449.58 C 68.97 412.78 41.48 358.20 36.59 301.60 C 30.91 252.17 43.77 201.13 70.10 159.09 C 104.42 103.94 165.22 65.67 230.38 61.43 M 158.34 158.31 C 147.78 168.46 137.35 178.81 127.89 189.99 C 155.85 220.35 185.40 249.38 213.09 279.99 C 185.57 310.71 155.77 339.66 128.02 369.99 C 137.50 381.36 148.14 392.10 159.08 402.16 C 188.07 372.90 216.30 342.24 244.99 313.07 C 273.92 342.05 301.77 373.20 330.99 402.00 C 342.20 392.41 352.16 380.92 362.03 370.01 C 334.19 339.61 304.59 310.61 276.88 280.02 C 304.53 249.38 334.24 220.40 362.05 190.01 C 353.33 178.47 341.69 169.51 332.69 158.21 C 329.82 157.08 328.16 160.86 326.21 162.21 C 300.33 189.31 274.47 216.42 248.45 243.38 C 247.04 244.25 246.49 247.63 244.26 246.78 C 223.74 224.66 202.63 203.05 181.74 181.26 C 173.70 174.15 167.21 163.07 158.34 158.31 Z" />
</g>
<g id="#fefafaff">
<path fill="#fefafa" opacity="1.00" d=" M 158.34 158.31 C 167.21 163.07 173.70 174.15 181.74 181.26 C 202.63 203.05 223.74 224.66 244.26 246.78 C 246.49 247.63 247.04 244.25 248.45 243.38 C 274.47 216.42 300.33 189.31 326.21 162.21 C 328.16 160.86 329.82 157.08 332.69 158.21 C 341.69 169.51 353.33 178.47 362.05 190.01 C 334.24 220.40 304.53 249.38 276.88 280.02 C 304.59 310.61 334.19 339.61 362.03 370.01 C 352.16 380.92 342.20 392.41 330.99 402.00 C 301.77 373.20 273.92 342.05 244.99 313.07 C 216.30 342.24 188.07 372.90 159.08 402.16 C 148.14 392.10 137.50 381.36 128.02 369.99 C 155.77 339.66 185.57 310.71 213.09 279.99 C 185.40 249.38 155.85 220.35 127.89 189.99 C 137.35 178.81 147.78 168.46 158.34 158.31 Z" />
</g>
</svg>
